<?xml version="1.0" standalone="no"?>
<!DOCTYPE svg PUBLIC "-//W3C//DTD SVG 20010904//EN" "http://www.w3.org/TR/2001/REC-SVG-20010904/DTD/svg10.dtd">
<!-- Created using Krita: https://krita.org -->
<svg xmlns="http://www.w3.org/2000/svg" 
    xmlns:xlink="http://www.w3.org/1999/xlink"
    xmlns:krita="http://krita.org/namespaces/svg/krita"
    xmlns:sodipodi="http://sodipodi.sourceforge.net/DTD/sodipodi-0.dtd"
    width="17.28pt"
    height="17.28pt"
    viewBox="0 0 17.28 17.28">
<defs/>
<path id="shape0" transform="matrix(0.018 0 0 0.018 2.16 2.178)" fill="#007bff" stroke-opacity="0" stroke="#000000" stroke-width="0" stroke-linecap="square" stroke-linejoin="bevel" d="M0 719L0 529L358 171L300 115L358 59L434 135L558 11C561.333 7.66667 565.5 5 570.5 3C575.5 1 580.667 0 586 0C591.333 0 596.333 1 601 3C605.667 5 610 7.66667 614 11L708 105C711.333 109 714 113.333 716 118C718 122.667 719 127.667 719 133C719 138.333 718 143.5 716 148.5C714 153.5 711.333 157.667 708 161L585 284L661 362L604 419L548 361L190 719ZM80 639L158 639L490 305L414 229L80 561ZM527 229L623 133L586 96L490 192ZM527 229L490 192Z" sodipodi:nodetypes="cccccccccccccccccccccccccccccccccccc"/>
</svg>
